<?xml version="1.0" encoding="iso-8859-1"?>
<!-- Uploaded to: SVG Repo, www.svgrepo.com, Generator: SVG Repo Mixer Tools -->
<svg height="800px" width="800px" version="1.1" id="Layer_1" xmlns="http://www.w3.org/2000/svg" xmlns:xlink="http://www.w3.org/1999/xlink" 
	 viewBox="0 0 512 512" xml:space="preserve">
<circle style="fill:#FFAD38;" cx="256" cy="256" r="247.83"/>
<circle style="fill:#FFC066;" cx="256" cy="256" r="220.596"/>
<path style="fill:#FD9A0C;" d="M349.798,155.371c-19.357,0-35.048,15.692-35.048,35.048h-21.383v-56.973h-12.149
	c-7.225,0-13.081,5.856-13.081,13.081v43.891H256h-12.138v-43.891c0-7.225-5.856-13.081-13.081-13.081h-12.147v56.973h-21.383
	c0-19.356-15.691-35.048-35.048-35.048s-35.048,15.692-35.048,35.048V323.76c37.327,0,67.855-29.114,70.112-65.873
	c0-0.004,1.868-0.01,1.868-0.015h18.655c0,17.255,10.122,31.989,24.395,37.878l-30.905,62.416c0,0,18.577,8.403,44.719,8.403
	s44.719-8.403,44.719-8.403l-30.905-62.416c14.273-5.889,24.395-20.623,24.395-37.878h18.655c0,0.005,1.867,0.011,1.867,0.015
	c2.258,36.759,32.786,65.873,70.113,65.873V190.419C384.846,171.064,369.155,155.371,349.798,155.371z"/>
<path d="M437.019,74.981C388.668,26.628,324.38,0,256,0S123.332,26.628,74.981,74.981C26.628,123.332,0,187.62,0,256
	s26.628,132.668,74.981,181.019C123.332,485.372,187.62,512,256,512s132.668-26.628,181.019-74.981
	C485.372,388.668,512,324.38,512,256S485.372,123.332,437.019,74.981z M256,495.66c-132.149,0-239.66-107.51-239.66-239.66
	S123.851,16.34,256,16.34S495.66,123.851,495.66,256S388.149,495.66,256,495.66z M407.747,159.755
	c-33.283-52.285-90.012-83.5-151.747-83.5s-118.464,31.216-151.748,83.501c-1.557,2.448-4.199,3.784-6.9,3.784
	c-1.5,0-3.02-0.413-4.379-1.279c-3.807-2.423-4.928-7.473-2.504-11.279c36.3-57.024,98.181-91.067,165.532-91.067
	s129.232,34.043,165.532,91.066c2.424,3.806,1.302,8.857-2.504,11.279C415.22,164.684,410.171,163.562,407.747,159.755z
	 M384.846,331.931c4.512,0,8.17-3.658,8.17-8.17V190.419c0-23.83-19.387-43.218-43.218-43.218
	c-21.038,0-38.613,15.111-42.444,35.048h-5.817v-40.632h7.682c4.512,0,8.17-3.658,8.17-8.17s-3.658-8.17-8.17-8.17h-14.918
	c-0.158,0-0.312,0.015-0.467,0.023c-0.156-0.009-0.309-0.023-0.467-0.023h-12.149c-11.718,0-21.251,9.533-21.251,21.251v35.721
	h-7.935v-35.721c0-11.718-9.533-21.251-21.251-21.251h-12.147c-0.158,0-0.312,0.015-0.467,0.023
	c-0.156-0.009-0.309-0.023-0.467-0.023h-14.918c-4.512,0-8.17,3.658-8.17,8.17s3.658,8.17,8.17,8.17h7.682v40.632h-5.817
	c-3.83-19.938-21.406-35.048-42.444-35.048c-23.83,0-43.218,19.387-43.218,43.218V323.76c0,4.512,3.658,8.17,8.17,8.17
	c38.761,0,71.392-28.375,77.42-65.888h5.686c2.184,13.786,9.838,25.811,21.087,33.184l-27.389,55.315
	c-0.984,1.986-1.118,4.288-0.373,6.375c0.745,2.087,2.307,3.781,4.327,4.695c0.824,0.373,20.5,9.129,48.087,9.129
	c27.587,0,47.263-8.756,48.087-9.129c2.02-0.914,3.582-2.608,4.327-4.695s0.611-4.388-0.373-6.375l-27.389-55.315
	c11.249-7.374,18.904-19.398,21.087-33.184h5.686C313.454,303.556,346.086,331.931,384.846,331.931z M322.863,257.075
	c-0.122-1.222-1.134-7.322-9.056-7.365l-0.735-0.004c-0.069-0.001-0.137-0.002-0.207-0.002h-18.655c-4.512,0-8.17,3.658-8.17,8.17
	c0,13.365-7.773,25.552-19.342,30.326c-2.093,0.864-3.733,2.557-4.531,4.676c-0.797,2.119-0.68,4.474,0.325,6.502l26.83,54.186
	c-7.299,2.186-19.086,4.838-33.322,4.838c-14.139,0-25.977-2.667-33.314-4.856l26.821-54.167c1.004-2.028,1.122-4.384,0.325-6.502
	c-0.796-2.119-2.438-3.812-4.531-4.676c-11.569-4.774-19.342-16.96-19.342-30.326c0-4.512-3.658-8.17-8.17-8.17h-18.655
	c-0.07,0-0.138,0.001-0.207,0.002l-0.735,0.004c-7.922,0.045-8.933,6.143-9.056,7.365c-0.01,0.104-0.019,0.207-0.025,0.312
	c-1.836,29.879-24.801,53.832-53.787,57.668V190.42c0-14.82,12.057-26.878,26.878-26.878c14.821,0,26.878,12.057,26.878,26.878
	c0,4.512,3.658,8.17,8.17,8.17h21.383c4.512,0,8.17-3.658,8.17-8.17v-48.803h3.977c2.708,0,4.911,2.203,4.911,4.911v43.891
	c0,4.512,3.658,8.17,8.17,8.17h24.275c4.512,0,8.17-3.658,8.17-8.17v-43.891c0-2.708,2.203-4.911,4.911-4.911h3.977v48.802
	c0,4.512,3.658,8.17,8.17,8.17h21.383c4.512,0,8.17-3.658,8.17-8.17c0-14.82,12.057-26.878,26.878-26.878
	s26.878,12.057,26.878,26.878v124.634c-28.987-3.836-51.953-27.789-53.787-57.668C322.882,257.282,322.874,257.179,322.863,257.075z
	 M285.957,431.75c4.512,0,8.17,3.658,8.17,8.17s-3.658,8.17-8.17,8.17h-59.915c-4.512,0-8.17-3.658-8.17-8.17s3.658-8.17,8.17-8.17
	H285.957z M315.915,411.416h-119.83c-4.512,0-8.17-3.658-8.17-8.17c0-4.512,3.658-8.17,8.17-8.17h119.83
	c4.512,0,8.17,3.658,8.17,8.17C324.085,407.758,320.427,411.416,315.915,411.416z M462.122,355.194
	c-18.458,38.206-47.138,70.539-82.941,93.503C342.395,472.294,299.8,484.766,256,484.766c-58.056,0-113.45-21.863-155.977-61.562
	c-42.311-39.497-67.938-92.863-72.161-150.264c-0.331-4.5,3.049-8.416,7.549-8.748c4.503-0.325,8.417,3.049,8.748,7.549
	C52.273,382.031,145.324,468.426,256,468.426c80.959,0,156.092-47.236,191.41-120.341c1.963-4.062,6.848-5.765,10.911-3.803
	C462.383,346.246,464.085,351.131,462.122,355.194z M484.766,256c0,23.041-3.437,45.804-10.214,67.655
	c-1.087,3.503-4.315,5.752-7.801,5.752c-0.802,0-1.617-0.119-2.423-0.369c-4.311-1.337-6.72-5.914-5.384-10.224
	c6.291-20.282,9.481-41.414,9.481-62.814c0-117.131-95.294-212.426-212.426-212.426c-110.676,0-203.727,86.394-211.842,196.684
	c-0.331,4.5-4.247,7.876-8.748,7.549c-4.5-0.331-7.879-4.247-7.549-8.748c4.223-57.402,29.851-110.766,72.161-150.264
	C142.55,49.098,197.944,27.234,256,27.234C382.142,27.234,484.766,129.858,484.766,256z"/>
</svg>